<svg xmlns="http://www.w3.org/2000/svg" fill="#000000" fill-rule="evenodd" height="24" viewBox="0 0 24 24" width="24"><path clip-rule="evenodd" d="M8.086 0.457C9.049313215809198 0.061113537782588295 10.097889444828832 -0.08174894909960159 11.132 0.04199999999999927C12.465 0.19500000000000003 13.652999999999999 0.762 14.696 1.742C14.724532918297955 1.7690230445472508 14.764726427032956 1.7799166123352412 14.802999999999999 1.771C16.211 1.4249999999999998 17.564999999999998 1.547 18.863999999999997 2.137L18.926999999999996 2.167L19.080999999999996 2.243C20.437999999999995 2.9459999999999997 21.410999999999994 4.013 21.998999999999995 5.441C22.276999999999994 6.12 22.416999999999994 6.829 22.419999999999995 7.567C22.439616069919996 8.116526536049003 22.378977852095296 8.66597616533834 22.23999999999999 9.198C22.226088685559137 9.2531071179041 22.24115943460108 9.311506270441644 22.27999999999999 9.352999999999998C23.06615613848147 10.150024065374497 23.612881237774314 11.15166047985841 23.857999999999993 12.244C24.242999999999995 14.145 23.847999999999992 15.859 22.674999999999994 17.384L22.492999999999995 17.604C21.716157591812237 18.493595268470113 20.69640840068275 19.13693397084935 19.55899999999999 19.455C19.508613963402542 19.46951771159131 19.46837088217747 19.50752506608166 19.450999999999993 19.557C19.195999999999994 20.293 18.939999999999994 20.921 18.463999999999995 21.549C17.264999999999993 23.131 15.501999999999995 24.011 13.515999999999995 24.0C11.932999999999995 23.992 10.529999999999994 23.413 9.305999999999994 22.264C9.268263434539946 22.229349825708933 9.215042862763463 22.217185123588596 9.165999999999993 22.232C8.647999999999993 22.399 8.125999999999994 22.423 7.561999999999993 22.416999999999998C6.6609522249539195 22.409722739112752 5.773437715185607 22.196992864324354 4.966999999999993 21.794999999999995C4.122895264026929 21.376302858840564 3.3880936579865533 20.76647915876698 2.8209999999999944 20.014C2.6179999999999937 19.745 2.4169999999999936 19.492 2.2699999999999934 19.192999999999998C2.0672594737032197 18.780867380621366 1.9016058188034572 18.35150649327511 1.7749999999999935 17.909999999999993C1.509178964596769 16.906688961114952 1.5033283343068264 15.852198890033423 1.7579999999999933 14.845999999999997C1.7662336064821713 14.82225686843092 1.768969027166737 14.796954227098686 1.7659999999999931 14.771999999999995C1.761046547205459 14.747175918469111 1.7480409486476758 14.724679747990782 1.7289999999999939 14.707999999999997C1.1125797018909145 14.08448215889016 0.6413725920715924 13.332599509743675 0.34899999999999337 12.505999999999997C0.15542593900162507 11.997053683717056 0.043054558673796574 11.460843103113696 0.01599999999999381 10.916999999999994C-0.03235939011111203 10.200883262332354 0.031066812638772548 9.48160313327515 0.2039999999999916 8.785000000000002C0.6539999999999935 7.300999999999997 1.5129999999999935 6.136999999999997 2.7809999999999935 5.291999999999996C3.0629999999999935 5.1039999999999965 3.3309999999999933 4.957999999999997 3.5829999999999935 4.8539999999999965C3.8689999999999936 4.733999999999996 4.1559999999999935 4.633999999999997 4.443999999999994 4.549999999999996C4.485852487382997 4.537588597106882 4.518588597106879 4.504852487382999 4.5309999999999935 4.4629999999999965C4.749395510146892 3.677973301110092 5.124990529809786 2.9454949701914264 5.635 2.31C6.315 1.464 7.132 0.846 8.086 0.457ZM7.282 8.307C7.049488116709983 7.900242289500207 6.531257720237878 7.758988133745853 6.124500006273388 7.991500010974707C5.717742292308898 8.224011888203558 5.576488128832309 8.742242282570814 5.808999999999999 9.149000000000001L7.503 12.114L5.815 14.962C5.59996676058139 15.362969896998983 5.739252575594574 15.862174089609995 6.130816194829293 16.09389393003383C6.522379814064013 16.325613770457664 7.027004264732959 16.20746332411334 7.275 15.826L9.215 12.554C9.37076078898616 12.291311407419 9.373433779367906 11.965206580846196 9.222 11.7L7.282 8.307000000000002V8.307ZM12.728 14.547C12.279496688276733 14.573696142314953 11.9294455151624 14.945202877105544 11.9294455151624 15.3945C11.9294455151624 15.843797122894456 12.279496688276733 16.215303857685047 12.727999999999998 16.242H17.576C18.028342204953358 16.220025845202844 18.383805340151905 15.846875627364863 18.383805340151905 15.394C18.383805340151905 14.941124372635139 18.028342204953358 14.567974154797156 17.575999999999997 14.546000000000001H12.728000000000002L12.728 14.547Z" /></svg>